<svg width="172" height="69" viewBox="0 0 172 69" fill="none" xmlns="http://www.w3.org/2000/svg">
<g clip-path="url(#clip0_310_3359)">
<path d="M37.7206 24.9928V30.6496H43.3774L51.1556 22.8714L45.4988 17.2146L37.7206 24.9928ZM24.9927 37.7207H30.6495V43.3775L22.8714 51.1557L17.2145 45.4989L24.9927 37.7207ZM37.7206 43.3775V37.7207H43.3774L51.1556 45.4989L45.4988 51.1557L37.7206 43.3775ZM30.6495 24.9928V30.6496H24.9927L17.2145 22.8714L22.8714 17.2146L30.6495 24.9928Z" stroke="black" stroke-width="2" stroke-linecap="round" stroke-linejoin="round"/>
</g>
<path d="M59.7035 41.1853V26.6398H64.8881C66.0198 26.6398 66.9573 26.8458 67.7006 27.2577C68.444 27.6697 69.0004 28.2331 69.3697 28.9481C69.739 29.6583 69.9237 30.4585 69.9237 31.3487C69.9237 32.2435 69.7366 33.0485 69.3626 33.7634C68.9933 34.4737 68.4345 35.0371 67.6864 35.4538C66.9431 35.8657 66.0079 36.0717 64.881 36.0717H61.3157V34.2109H64.6822C65.3971 34.2109 65.9772 34.0878 66.4222 33.8416C66.8673 33.5906 67.194 33.2497 67.4023 32.8188C67.6107 32.388 67.7148 31.8979 67.7148 31.3487C67.7148 30.7994 67.6107 30.3117 67.4023 29.8856C67.194 29.4594 66.8649 29.1256 66.4151 28.8842C65.9701 28.6427 65.3829 28.522 64.6538 28.522H61.8981V41.1853H59.7035ZM74.4496 26.6398V41.1853H72.326V26.6398H74.4496ZM84.217 36.6612V30.2762H86.3477V41.1853H84.2596V39.2961H84.146C83.895 39.8785 83.4925 40.3638 82.9386 40.7521C82.3893 41.1356 81.7051 41.3273 80.886 41.3273C80.1853 41.3273 79.565 41.1735 79.0252 40.8657C78.4902 40.5532 78.0688 40.0916 77.761 39.4808C77.458 38.87 77.3065 38.1148 77.3065 37.2151V30.2762H79.43V36.9595C79.43 37.7028 79.636 38.2947 80.0479 38.735C80.4599 39.1754 80.9949 39.3955 81.6531 39.3955C82.0508 39.3955 82.4461 39.2961 82.8391 39.0972C83.2369 38.8984 83.5659 38.5977 83.8263 38.1952C84.0915 37.7928 84.2217 37.2814 84.217 36.6612ZM97.3757 32.9396L95.451 33.2805C95.3705 33.0343 95.2427 32.7999 95.0675 32.5773C94.897 32.3548 94.665 32.1725 94.3714 32.0305C94.0779 31.8884 93.7109 31.8174 93.2706 31.8174C92.6693 31.8174 92.1674 31.9523 91.7649 32.2222C91.3625 32.4874 91.1612 32.8307 91.1612 33.2521C91.1612 33.6166 91.2962 33.9102 91.5661 34.1327C91.8359 34.3553 92.2715 34.5376 92.8729 34.6796L94.6058 35.0773C95.6096 35.3094 96.3577 35.6668 96.8501 36.1498C97.3426 36.6327 97.5888 37.2601 97.5888 38.0319C97.5888 38.6853 97.3994 39.2677 97.0206 39.7791C96.6465 40.2857 96.1233 40.6834 95.451 40.9722C94.7834 41.2611 94.0092 41.4055 93.1286 41.4055C91.907 41.4055 90.9103 41.1451 90.1385 40.6242C89.3667 40.0987 88.8932 39.3529 88.718 38.387L90.7706 38.0745C90.8984 38.6095 91.1612 39.0144 91.5589 39.289C91.9567 39.5589 92.4751 39.6938 93.1143 39.6938C93.8104 39.6938 94.3667 39.5494 94.7834 39.2606C95.2 38.967 95.4084 38.6095 95.4084 38.1881C95.4084 37.8472 95.2805 37.5608 95.0249 37.3288C94.7739 37.0968 94.388 36.9216 93.8672 36.8032L92.0206 36.3984C91.0026 36.1664 90.2498 35.797 89.7621 35.2904C89.2791 34.7838 89.0376 34.1422 89.0376 33.3657C89.0376 32.7218 89.2176 32.1583 89.5774 31.6754C89.9373 31.1924 90.4344 30.816 91.0689 30.5461C91.7034 30.2715 92.4302 30.1342 93.2493 30.1342C94.4283 30.1342 95.3563 30.3898 96.0334 30.9012C96.7105 31.4078 97.1579 32.0873 97.3757 32.9396ZM109.938 31.235C109.801 30.8041 109.616 30.4183 109.384 30.0773C109.157 29.7317 108.884 29.4381 108.567 29.1967C108.25 28.9505 107.888 28.7634 107.48 28.6356C107.078 28.5077 106.635 28.4438 106.152 28.4438C105.333 28.4438 104.595 28.6545 103.936 29.0759C103.278 29.4973 102.757 30.1152 102.374 30.9296C101.995 31.7393 101.806 32.7312 101.806 33.9055C101.806 35.0845 101.998 36.0811 102.381 36.8955C102.765 37.7099 103.29 38.3278 103.958 38.7492C104.625 39.1706 105.385 39.3813 106.238 39.3813C107.028 39.3813 107.717 39.2203 108.304 38.8984C108.896 38.5764 109.353 38.1219 109.675 37.5347C110.002 36.9429 110.165 36.2469 110.165 35.4467L110.733 35.5532H106.571V33.7421H112.289V35.397C112.289 36.6185 112.028 37.6791 111.507 38.5788C110.991 39.4737 110.276 40.1649 109.363 40.6526C108.453 41.1403 107.412 41.3842 106.238 41.3842C104.921 41.3842 103.766 41.0811 102.772 40.4751C101.782 39.869 101.01 39.0096 100.456 37.897C99.9023 36.7795 99.6254 35.4538 99.6254 33.9197C99.6254 32.7596 99.7863 31.718 100.108 30.7947C100.43 29.8714 100.882 29.0878 101.465 28.4438C102.052 27.7952 102.741 27.3004 103.532 26.9595C104.327 26.6138 105.196 26.441 106.138 26.441C106.924 26.441 107.656 26.557 108.333 26.789C109.015 27.021 109.621 27.3501 110.151 27.7762C110.686 28.2023 111.129 28.709 111.479 29.2961C111.829 29.8785 112.066 30.5248 112.189 31.235H109.938ZM118.079 41.4268C117.388 41.4268 116.763 41.2989 116.204 41.0433C115.645 40.7828 115.202 40.4064 114.876 39.914C114.554 39.4216 114.393 38.8179 114.393 38.1029C114.393 37.4874 114.511 36.9808 114.748 36.583C114.985 36.1853 115.304 35.8704 115.707 35.6384C116.109 35.4064 116.559 35.2312 117.056 35.1129C117.553 34.9945 118.06 34.9045 118.576 34.843C119.229 34.7672 119.76 34.7057 120.167 34.6583C120.574 34.6062 120.87 34.5234 121.055 34.4097C121.239 34.2961 121.332 34.1114 121.332 33.8558V33.806C121.332 33.1858 121.156 32.7052 120.806 32.3643C120.46 32.0234 119.944 31.8529 119.258 31.8529C118.543 31.8529 117.979 32.0115 117.567 32.3288C117.16 32.6413 116.879 32.9893 116.722 33.3728L114.727 32.9183C114.963 32.2554 115.309 31.7203 115.763 31.3131C116.223 30.9012 116.751 30.6029 117.347 30.4183C117.944 30.2289 118.571 30.1342 119.229 30.1342C119.665 30.1342 120.127 30.1862 120.614 30.2904C121.107 30.3898 121.566 30.5745 121.992 30.8444C122.423 31.1143 122.776 31.5002 123.05 32.0021C123.325 32.4992 123.462 33.1455 123.462 33.941V41.1853H121.388V39.6938H121.303C121.166 39.9684 120.96 40.2383 120.685 40.5035C120.411 40.7686 120.058 40.9888 119.627 41.164C119.196 41.3392 118.68 41.4268 118.079 41.4268ZM118.54 39.7222C119.128 39.7222 119.629 39.6062 120.046 39.3742C120.468 39.1422 120.787 38.8392 121.005 38.4651C121.228 38.0863 121.339 37.6815 121.339 37.2506V35.8444C121.263 35.9202 121.116 35.9912 120.898 36.0575C120.685 36.119 120.442 36.1735 120.167 36.2208C119.892 36.2634 119.625 36.3037 119.364 36.3416C119.104 36.3747 118.886 36.4031 118.711 36.4268C118.299 36.4789 117.923 36.5665 117.582 36.6896C117.246 36.8127 116.976 36.9902 116.772 37.2222C116.573 37.4495 116.474 37.7525 116.474 38.1313C116.474 38.6569 116.668 39.0546 117.056 39.3245C117.444 39.5897 117.939 39.7222 118.54 39.7222ZM126.291 41.1853V30.2762H128.329V32.0518H128.464C128.691 31.4505 129.063 30.9817 129.579 30.6455C130.095 30.3046 130.713 30.1342 131.433 30.1342C132.162 30.1342 132.773 30.3046 133.265 30.6455C133.762 30.9864 134.129 31.4552 134.366 32.0518H134.48C134.74 31.4694 135.154 31.0054 135.723 30.6597C136.291 30.3094 136.968 30.1342 137.754 30.1342C138.743 30.1342 139.551 30.4443 140.176 31.0646C140.806 31.6848 141.12 32.62 141.12 33.87V41.1853H138.997V34.0688C138.997 33.3302 138.796 32.7952 138.393 32.4637C137.991 32.1323 137.51 31.9666 136.951 31.9666C136.26 31.9666 135.723 32.1796 135.339 32.6058C134.956 33.0272 134.764 33.5693 134.764 34.2322V41.1853H132.647V33.9339C132.647 33.342 132.463 32.8662 132.093 32.5063C131.724 32.1465 131.243 31.9666 130.652 31.9666C130.249 31.9666 129.877 32.0731 129.537 32.2862C129.2 32.4945 128.928 32.7857 128.72 33.1597C128.516 33.5338 128.414 33.967 128.414 34.4595V41.1853H126.291ZM148.668 41.4055C147.594 41.4055 146.668 41.1758 145.891 40.7166C145.12 40.2525 144.523 39.6015 144.102 38.7634C143.685 37.9206 143.477 36.9334 143.477 35.8018C143.477 34.6844 143.685 33.6995 144.102 32.8472C144.523 31.995 145.11 31.3297 145.863 30.8515C146.621 30.3733 147.506 30.1342 148.519 30.1342C149.135 30.1342 149.731 30.236 150.309 30.4396C150.887 30.6432 151.405 30.9628 151.864 31.3984C152.324 31.834 152.686 32.3998 152.951 33.0958C153.216 33.7871 153.349 34.6275 153.349 35.6171V36.37H144.677V34.7791H151.268C151.268 34.2203 151.154 33.7255 150.927 33.2947C150.7 32.8591 150.38 32.5158 149.968 32.2648C149.561 32.0139 149.083 31.8884 148.533 31.8884C147.937 31.8884 147.416 32.0352 146.971 32.3288C146.531 32.6176 146.19 32.9964 145.948 33.4651C145.711 33.9291 145.593 34.4334 145.593 34.9779V36.2208C145.593 36.95 145.721 37.5702 145.977 38.0816C146.237 38.593 146.599 38.9836 147.063 39.2535C147.527 39.5186 148.069 39.6512 148.69 39.6512C149.092 39.6512 149.459 39.5944 149.79 39.4808C150.122 39.3624 150.408 39.1872 150.65 38.9552C150.891 38.7232 151.076 38.4367 151.204 38.0958L153.214 38.458C153.053 39.0499 152.764 39.5684 152.347 40.0134C151.935 40.4538 151.417 40.797 150.792 41.0433C150.172 41.2847 149.464 41.4055 148.668 41.4055ZM163.88 32.9396L161.955 33.2805C161.874 33.0343 161.747 32.7999 161.571 32.5773C161.401 32.3548 161.169 32.1725 160.875 32.0305C160.582 31.8884 160.215 31.8174 159.775 31.8174C159.173 31.8174 158.671 31.9523 158.269 32.2222C157.866 32.4874 157.665 32.8307 157.665 33.2521C157.665 33.6166 157.8 33.9102 158.07 34.1327C158.34 34.3553 158.775 34.5376 159.377 34.6796L161.11 35.0773C162.114 35.3094 162.862 35.6668 163.354 36.1498C163.846 36.6327 164.093 37.2601 164.093 38.0319C164.093 38.6853 163.903 39.2677 163.525 39.7791C163.15 40.2857 162.627 40.6834 161.955 40.9722C161.287 41.2611 160.513 41.4055 159.632 41.4055C158.411 41.4055 157.414 41.1451 156.642 40.6242C155.871 40.0987 155.397 39.3529 155.222 38.387L157.275 38.0745C157.402 38.6095 157.665 39.0144 158.063 39.289C158.461 39.5589 158.979 39.6938 159.618 39.6938C160.314 39.6938 160.871 39.5494 161.287 39.2606C161.704 38.967 161.912 38.6095 161.912 38.1881C161.912 37.8472 161.784 37.5608 161.529 37.3288C161.278 37.0968 160.892 36.9216 160.371 36.8032L158.525 36.3984C157.507 36.1664 156.754 35.797 156.266 35.2904C155.783 34.7838 155.542 34.1422 155.542 33.3657C155.542 32.7218 155.721 32.1583 156.081 31.6754C156.441 31.1924 156.938 30.816 157.573 30.5461C158.207 30.2715 158.934 30.1342 159.753 30.1342C160.932 30.1342 161.86 30.3898 162.537 30.9012C163.214 31.4078 163.662 32.0873 163.88 32.9396Z" fill="black"/>
<defs>
<clipPath id="clip0_310_3359">
<rect width="48" height="48" fill="white" transform="translate(34.1851 0.244141) rotate(45)"/>
</clipPath>
</defs>
</svg>
