<svg width="106" height="16" viewBox="0 0 106 16" fill="none" xmlns="http://www.w3.org/2000/svg">
<path d="M0.70348 15.1853V0.639848H5.88814C7.01977 0.639848 7.95727 0.845814 8.70064 1.25775C9.44401 1.66968 10.0004 2.23312 10.3697 2.94809C10.739 3.65831 10.9237 4.4585 10.9237 5.34865C10.9237 6.24354 10.7366 7.04847 10.3626 7.76343C9.99325 8.47365 9.43454 9.0371 8.68643 9.45377C7.94306 9.8657 7.00793 10.0717 5.88104 10.0717H2.3157V8.21087H5.68217C6.39714 8.21087 6.97715 8.08776 7.42223 7.84155C7.86731 7.59061 8.19401 7.2497 8.40234 6.81883C8.61068 6.38795 8.71484 5.8979 8.71484 5.34865C8.71484 4.79941 8.61068 4.31172 8.40234 3.88559C8.19401 3.45945 7.86494 3.12564 7.41513 2.88417C6.97005 2.64269 6.38293 2.52195 5.65376 2.52195H2.89808V15.1853H0.70348ZM15.4496 0.639848V15.1853H13.326V0.639848H15.4496ZM25.217 10.6612V4.27621H27.3477V15.1853H25.2596V13.2961H25.146C24.895 13.8785 24.4925 14.3638 23.9386 14.7521C23.3893 15.1356 22.7051 15.3273 21.886 15.3273C21.1853 15.3273 20.565 15.1735 20.0252 14.8657C19.4902 14.5532 19.0688 14.0916 18.761 13.4808C18.458 12.87 18.3065 12.1148 18.3065 11.2151V4.27621H20.43V10.9595C20.43 11.7028 20.636 12.2947 21.0479 12.735C21.4599 13.1754 21.9949 13.3955 22.6531 13.3955C23.0508 13.3955 23.4461 13.2961 23.8391 13.0972C24.2369 12.8984 24.5659 12.5977 24.8263 12.1952C25.0915 11.7928 25.2217 11.2814 25.217 10.6612ZM38.3757 6.93956L36.451 7.28047C36.3705 7.03426 36.2427 6.79989 36.0675 6.57735C35.897 6.35481 35.665 6.17252 35.3714 6.03047C35.0779 5.88843 34.7109 5.8174 34.2706 5.8174C33.6693 5.8174 33.1674 5.95235 32.7649 6.22223C32.3625 6.48739 32.1612 6.83066 32.1612 7.25206C32.1612 7.61665 32.2962 7.91021 32.5661 8.13275C32.8359 8.35528 33.2715 8.53758 33.8729 8.67962L35.6058 9.07735C36.6096 9.30936 37.3577 9.66684 37.8501 10.1498C38.3426 10.6327 38.5888 11.2601 38.5888 12.0319C38.5888 12.6853 38.3994 13.2677 38.0206 13.7791C37.6465 14.2857 37.1233 14.6834 36.451 14.9722C35.7834 15.2611 35.0092 15.4055 34.1286 15.4055C32.907 15.4055 31.9103 15.1451 31.1385 14.6242C30.3667 14.0987 29.8932 13.3529 29.718 12.387L31.7706 12.0745C31.8984 12.6095 32.1612 13.0144 32.5589 13.289C32.9567 13.5589 33.4751 13.6938 34.1143 13.6938C34.8104 13.6938 35.3667 13.5494 35.7834 13.2606C36.2 12.967 36.4084 12.6095 36.4084 12.1881C36.4084 11.8472 36.2805 11.5608 36.0249 11.3288C35.7739 11.0968 35.388 10.9216 34.8672 10.8032L33.0206 10.3984C32.0026 10.1664 31.2498 9.79705 30.7621 9.29042C30.2791 8.78379 30.0376 8.14222 30.0376 7.3657C30.0376 6.72176 30.2176 6.15831 30.5774 5.67536C30.9373 5.1924 31.4344 4.81598 32.0689 4.5461C32.7034 4.27148 33.4302 4.13417 34.2493 4.13417C35.4283 4.13417 36.3563 4.38985 37.0334 4.90121C37.7105 5.40784 38.1579 6.08729 38.3757 6.93956ZM50.9379 5.23502C50.8005 4.80415 50.6159 4.41826 50.3839 4.07735C50.1566 3.7317 49.8844 3.43814 49.5671 3.19667C49.2499 2.95045 48.8877 2.76343 48.4805 2.63559C48.078 2.50775 47.6353 2.44383 47.1523 2.44383C46.3332 2.44383 45.5946 2.65453 44.9364 3.07593C44.2783 3.49733 43.7575 4.11523 43.3739 4.92962C42.9951 5.73928 42.8058 6.73123 42.8058 7.90547C42.8058 9.08445 42.9975 10.0811 43.381 10.8955C43.7646 11.7099 44.2901 12.3278 44.9577 12.7492C45.6254 13.1706 46.3853 13.3813 47.2376 13.3813C48.0283 13.3813 48.7172 13.2203 49.3043 12.8984C49.8962 12.5764 50.3531 12.1219 50.6751 11.5347C51.0018 10.9429 51.1651 10.2469 51.1651 9.44667L51.7333 9.5532H47.5714V7.74212H53.2887V9.39695C53.2887 10.6185 53.0283 11.6791 52.5075 12.5788C51.9914 13.4737 51.2764 14.1649 50.3626 14.6526C49.4535 15.1403 48.4118 15.3842 47.2376 15.3842C45.9213 15.3842 44.766 15.0811 43.7717 14.4751C42.7821 13.869 42.0103 13.0096 41.4563 11.897C40.9023 10.7795 40.6254 9.45377 40.6254 7.91968C40.6254 6.75964 40.7863 5.71797 41.1083 4.79468C41.4303 3.87138 41.8825 3.08776 42.4648 2.44383C43.052 1.79515 43.7409 1.30036 44.5316 0.95945C45.3271 0.613806 46.1959 0.440984 47.1381 0.440984C47.9241 0.440984 48.6557 0.556988 49.3327 0.788995C50.0146 1.021 50.6206 1.35007 51.1509 1.77621C51.686 2.20235 52.1287 2.70898 52.479 3.2961C52.8294 3.87848 53.0662 4.52479 53.1893 5.23502H50.9379ZM59.0788 15.4268C58.3875 15.4268 57.7625 15.2989 57.2038 15.0433C56.6451 14.7828 56.2024 14.4064 55.8757 13.914C55.5537 13.4216 55.3928 12.8179 55.3928 12.1029C55.3928 11.4874 55.5111 10.9808 55.7479 10.583C55.9846 10.1853 56.3042 9.87044 56.7067 9.63843C57.1091 9.40642 57.5589 9.23123 58.0561 9.11286C58.5533 8.99449 59.0599 8.90453 59.576 8.84297C60.2294 8.76722 60.7597 8.70566 61.1669 8.65831C61.5741 8.60623 61.87 8.52337 62.0547 8.40973C62.2393 8.2961 62.3317 8.11144 62.3317 7.85576V7.80604C62.3317 7.18578 62.1565 6.70519 61.8061 6.36428C61.4605 6.02337 60.9444 5.85292 60.2578 5.85292C59.5429 5.85292 58.9794 6.01153 58.5675 6.32877C58.1603 6.64127 57.8786 6.98928 57.7223 7.3728L55.7266 6.91826C55.9633 6.25538 56.3089 5.72034 56.7635 5.31314C57.2228 4.90121 57.7507 4.60292 58.3473 4.41826C58.9439 4.22886 59.5713 4.13417 60.2294 4.13417C60.665 4.13417 61.1267 4.18625 61.6143 4.29042C62.1068 4.38985 62.5661 4.57451 62.9922 4.84439C63.4231 5.11428 63.7758 5.50017 64.0504 6.00206C64.325 6.49922 64.4624 7.14553 64.4624 7.94098V15.1853H62.3885V13.6938H62.3033C62.166 13.9684 61.96 14.2383 61.6854 14.5035C61.4107 14.7686 61.058 14.9888 60.6271 15.164C60.1963 15.3392 59.6802 15.4268 59.0788 15.4268ZM59.5405 13.7222C60.1276 13.7222 60.6295 13.6062 61.0462 13.3742C61.4676 13.1422 61.7872 12.8392 62.005 12.4651C62.2275 12.0863 62.3388 11.6815 62.3388 11.2506V9.84439C62.263 9.92015 62.1162 9.99117 61.8984 10.0575C61.6854 10.119 61.4415 10.1735 61.1669 10.2208C60.8923 10.2634 60.6248 10.3037 60.3643 10.3416C60.1039 10.3747 59.8861 10.4031 59.7109 10.4268C59.299 10.4789 58.9226 10.5665 58.5817 10.6896C58.2455 10.8127 57.9756 10.9902 57.772 11.2222C57.5732 11.4495 57.4737 11.7525 57.4737 12.1313C57.4737 12.6569 57.6679 13.0546 58.0561 13.3245C58.4444 13.5897 58.9392 13.7222 59.5405 13.7222ZM67.2908 15.1853V4.27621H69.3292V6.05178H69.4641C69.6914 5.45045 70.0631 4.9817 70.5792 4.64553C71.0953 4.30462 71.7132 4.13417 72.4329 4.13417C73.1621 4.13417 73.7728 4.30462 74.2653 4.64553C74.7624 4.98644 75.1294 5.45519 75.3661 6.05178H75.4798C75.7402 5.46939 76.1545 5.00538 76.7227 4.65973C77.2908 4.30936 77.9679 4.13417 78.7539 4.13417C79.7435 4.13417 80.5508 4.4443 81.1758 5.06456C81.8055 5.68483 82.1204 6.61996 82.1204 7.86996V15.1853H79.9968V8.06883C79.9968 7.33019 79.7956 6.79515 79.3931 6.46371C78.9906 6.13227 78.5101 5.96655 77.9513 5.96655C77.2601 5.96655 76.7227 6.17962 76.3391 6.60576C75.9556 7.02716 75.7638 7.5693 75.7638 8.23218V15.1853H73.6474V7.93388C73.6474 7.34203 73.4627 6.86617 73.0934 6.50633C72.7241 6.14648 72.2435 5.96655 71.6516 5.96655C71.2492 5.96655 70.8775 6.07309 70.5366 6.28615C70.2004 6.49449 69.9281 6.78568 69.7198 7.15973C69.5162 7.53379 69.4144 7.96703 69.4144 8.45945V15.1853H67.2908ZM89.6683 15.4055C88.5935 15.4055 87.6679 15.1758 86.8913 14.7166C86.1196 14.2525 85.523 13.6015 85.1016 12.7634C84.6849 11.9206 84.4766 10.9334 84.4766 9.80178C84.4766 8.68436 84.6849 7.69951 85.1016 6.84723C85.523 5.99496 86.1101 5.32972 86.8629 4.8515C87.6205 4.37328 88.5059 4.13417 89.5192 4.13417C90.1347 4.13417 90.7313 4.23597 91.3089 4.43956C91.8866 4.64316 92.4051 4.96276 92.8643 5.39837C93.3236 5.83398 93.6858 6.39979 93.951 7.09581C94.2161 7.7871 94.3487 8.62754 94.3487 9.61712V10.37H85.6768V8.77905H92.2678C92.2678 8.22034 92.1541 7.72555 91.9268 7.29468C91.6996 6.85907 91.38 6.51579 90.968 6.26485C90.5608 6.0139 90.0826 5.88843 89.5334 5.88843C88.9368 5.88843 88.416 6.03521 87.9709 6.32877C87.5305 6.61759 87.1896 6.99638 86.9482 7.46513C86.7114 7.92915 86.593 8.43341 86.593 8.97792V10.2208C86.593 10.95 86.7209 11.5702 86.9766 12.0816C87.237 12.593 87.5992 12.9836 88.0632 13.2535C88.5272 13.5186 89.0694 13.6512 89.6896 13.6512C90.0921 13.6512 90.459 13.5944 90.7905 13.4808C91.1219 13.3624 91.4084 13.1872 91.6499 12.9552C91.8913 12.7232 92.076 12.4367 92.2038 12.0958L94.2138 12.458C94.0528 13.0499 93.764 13.5684 93.3473 14.0134C92.9354 14.4538 92.4169 14.797 91.7919 15.0433C91.1716 15.2847 90.4638 15.4055 89.6683 15.4055ZM104.88 6.93956L102.955 7.28047C102.874 7.03426 102.747 6.79989 102.571 6.57735C102.401 6.35481 102.169 6.17252 101.875 6.03047C101.582 5.88843 101.215 5.8174 100.775 5.8174C100.173 5.8174 99.6713 5.95235 99.2688 6.22223C98.8664 6.48739 98.6651 6.83066 98.6651 7.25206C98.6651 7.61665 98.8001 7.91021 99.07 8.13275C99.3398 8.35528 99.7754 8.53758 100.377 8.67962L102.11 9.07735C103.114 9.30936 103.862 9.66684 104.354 10.1498C104.846 10.6327 105.093 11.2601 105.093 12.0319C105.093 12.6853 104.903 13.2677 104.525 13.7791C104.15 14.2857 103.627 14.6834 102.955 14.9722C102.287 15.2611 101.513 15.4055 100.632 15.4055C99.4109 15.4055 98.4142 15.1451 97.6424 14.6242C96.8706 14.0987 96.3971 13.3529 96.2219 12.387L98.2745 12.0745C98.4023 12.6095 98.6651 13.0144 99.0629 13.289C99.4606 13.5589 99.979 13.6938 100.618 13.6938C101.314 13.6938 101.871 13.5494 102.287 13.2606C102.704 12.967 102.912 12.6095 102.912 12.1881C102.912 11.8472 102.784 11.5608 102.529 11.3288C102.278 11.0968 101.892 10.9216 101.371 10.8032L99.5245 10.3984C98.5065 10.1664 97.7537 9.79705 97.266 9.29042C96.783 8.78379 96.5415 8.14222 96.5415 7.3657C96.5415 6.72176 96.7215 6.15831 97.0813 5.67536C97.4412 5.1924 97.9383 4.81598 98.5728 4.5461C99.2073 4.27148 99.9341 4.13417 100.753 4.13417C101.932 4.13417 102.86 4.38985 103.537 4.90121C104.214 5.40784 104.662 6.08729 104.88 6.93956Z" fill="black"/>
</svg>
