<svg width="24" height="30" viewBox="0 0 24 30" fill="none" xmlns="http://www.w3.org/2000/svg">
<g clip-path="url(#clip0_310_3387)">
<path d="M20.0421 15.6549C20.0835 20.1143 23.9542 21.5982 23.997 21.6172C23.9642 21.7218 23.3785 23.7319 21.9578 25.8082C20.7297 27.6033 19.4549 29.3917 17.4469 29.4288C15.4739 29.4651 14.8394 28.2588 12.5837 28.2588C10.3285 28.2588 9.62364 29.3917 7.75589 29.4651C5.81766 29.5385 4.34168 27.5241 3.10339 25.7355C0.572821 22.0772 -1.361 15.3977 1.23564 10.889C2.52558 8.64987 4.83093 7.23209 7.33301 7.19572C9.23628 7.15945 11.0328 8.47619 12.1963 8.47619C13.359 8.47619 15.5422 6.89271 17.8372 7.12524C18.7979 7.16526 21.4949 7.51326 23.2267 10.0481C23.087 10.1347 20.0086 11.9268 20.0421 15.655M16.3341 4.70489C17.3632 3.45929 18.0557 1.72538 17.8667 0C16.3835 0.059609 14.5899 0.988422 13.526 2.23328C12.5725 3.33576 11.7375 5.10022 11.9628 6.79139C13.6161 6.91933 15.305 5.95125 16.3341 4.70489Z" fill="black"/>
</g>
<defs>
<clipPath id="clip0_310_3387">
<rect width="24" height="29.5233" fill="white"/>
</clipPath>
</defs>
</svg>
