<svg width="22" height="22" viewBox="0 0 22 22" fill="none" xmlns="http://www.w3.org/2000/svg">
<g clip-path="url(#clip0_310_3391)">
<path d="M7.66413 0.723606C5.46598 1.48616 3.57031 2.93352 2.25555 4.85308C0.940785 6.77264 0.276236 9.06323 0.359511 11.3884C0.442786 13.7136 1.2695 15.9507 2.71821 17.7713C4.16693 19.5919 6.16128 20.8999 8.40834 21.5033C10.2301 21.9734 12.1387 21.994 13.9702 21.5635C15.6294 21.1908 17.1633 20.3936 18.4218 19.25C19.7316 18.0234 20.6823 16.463 21.1718 14.7366C21.7036 12.8591 21.7983 10.8848 21.4485 8.96501H11.2185V13.2086H17.143C17.0246 13.8854 16.7709 14.5314 16.397 15.1079C16.0231 15.6844 15.5368 16.1795 14.9671 16.5636C14.2437 17.0423 13.4282 17.3643 12.5729 17.5089C11.7151 17.6685 10.8353 17.6685 9.97756 17.5089C9.10814 17.3294 8.28569 16.9705 7.56272 16.4553C6.4011 15.6331 5.52888 14.4649 5.07053 13.1175C4.60456 11.7449 4.60456 10.2569 5.07053 8.88423C5.3968 7.9221 5.93615 7.04609 6.64834 6.32157C7.46336 5.47723 8.4952 4.87369 9.63064 4.57717C10.7661 4.28065 11.9613 4.30261 13.0851 4.64064C13.963 4.91001 14.7658 5.38087 15.4294 6.01564C16.0975 5.35105 16.7643 4.68475 17.4301 4.01673C17.7738 3.65751 18.1485 3.31548 18.4871 2.94767C17.4739 2.00497 16.2848 1.27138 14.9877 0.788918C12.6256 -0.0687555 10.0411 -0.0918046 7.66413 0.723606Z" fill="white"/>
<path d="M7.66414 0.723587C10.0409 -0.0923781 12.6255 -0.0699356 14.9877 0.78718C16.285 1.27292 17.4736 2.01004 18.4854 2.95624C18.1416 3.32406 17.779 3.66781 17.4284 4.02531C16.7615 4.69103 16.0952 5.35447 15.4295 6.01562C14.7658 5.38085 13.963 4.90999 13.0851 4.64062C11.9617 4.30141 10.7665 4.27818 9.63077 4.57349C8.49502 4.86879 7.46255 5.47122 6.64664 6.31468C5.93445 7.0392 5.39509 7.91521 5.06883 8.87734L1.50586 6.11874C2.78119 3.58971 4.98933 1.65519 7.66414 0.723587Z" fill="#E33629"/>
<path d="M0.560288 8.85159C0.751653 7.90244 1.0696 6.98329 1.5056 6.11877L5.06857 8.88424C4.6026 10.2569 4.6026 11.7449 5.06857 13.1175C3.88149 14.0342 2.69383 14.9554 1.5056 15.8813C0.414453 13.7093 0.0816723 11.2346 0.560288 8.85159Z" fill="#F8BD00"/>
<path d="M11.218 8.96326H21.448C21.7978 10.883 21.7031 12.8573 21.1713 14.7348C20.6819 16.4613 19.7312 18.0217 18.4213 19.2483C17.2715 18.3511 16.1165 17.4608 14.9666 16.5636C15.5367 16.179 16.0233 15.6834 16.3972 15.1063C16.7711 14.5292 17.0246 13.8826 17.1426 13.2051H11.218C11.2163 11.7923 11.218 10.3778 11.218 8.96326Z" fill="#587DBD"/>
<path d="M1.50391 15.8813C2.69214 14.9646 3.87979 14.0434 5.06688 13.1176C5.52614 14.4654 6.3996 15.6336 7.5625 16.4554C8.28773 16.9682 9.11195 17.3241 9.9825 17.5004C10.8403 17.6599 11.7201 17.6599 12.5778 17.5004C13.4331 17.3558 14.2487 17.0338 14.972 16.5551C16.1219 17.4522 17.2769 18.3426 18.4267 19.2397C17.1684 20.384 15.6345 21.1817 13.9752 21.5549C12.1437 21.9855 10.235 21.9648 8.41328 21.4947C6.97246 21.11 5.62663 20.4319 4.46016 19.5027C3.22563 18.5224 2.21725 17.2871 1.50391 15.8813Z" fill="#319F43"/>
</g>
<defs>
<clipPath id="clip0_310_3391">
<rect width="22" height="22" fill="white"/>
</clipPath>
</defs>
</svg>
